<svg width="20" height="20" viewBox="0 0 20 20" fill="none" xmlns="http://www.w3.org/2000/svg">
<path d="M9.9999 15.6249C7.6296 15.6249 5.71085 13.3316 5.53429 10.4254L2.25618 7.25862C1.82524 7.9344 1.42868 8.64884 1.10868 9.43008C1.03719 9.60684 0.999946 9.80213 0.999946 10.0002C0.999946 10.1983 1.03719 10.3935 1.10868 10.5703C2.80336 14.7035 6.15835 17.4999 9.9999 17.4999C10.8408 17.4999 11.6521 17.3437 12.434 17.0913L10.8124 15.523C10.5446 15.5877 10.2726 15.6218 9.9999 15.6249ZM19.8067 17.8945L16.3521 14.557C17.4015 13.4515 18.2646 12.0962 18.8911 10.5699C18.9626 10.3932 18.9999 10.1979 18.9999 9.99981C18.9999 9.80174 18.9626 9.60645 18.8911 9.42969C17.1964 5.29653 13.8415 2.50008 9.9999 2.50008C8.391 2.50251 6.80823 3.00881 5.39617 3.97272L1.42055 0.131742C1.36871 0.0813156 1.30943 0.044153 1.24609 0.0223777C1.18275 0.000602448 1.1166 -0.00535875 1.05142 0.00483481C0.98624 0.0150284 0.923305 0.0411769 0.866212 0.081786C0.809118 0.122395 0.758986 0.176669 0.71868 0.241506L0.105245 1.22861C0.0238694 1.35946 -0.0125943 1.52535 0.00387315 1.68981C0.0203406 1.85426 0.0883907 2.00381 0.193057 2.10555L18.5793 19.8683C18.6311 19.9187 18.6904 19.9558 18.7537 19.9776C18.8171 19.9994 18.8832 20.0054 18.9484 19.9952C19.0136 19.985 19.0765 19.9588 19.1336 19.9182C19.1907 19.8776 19.2408 19.8233 19.2811 19.7585L19.8949 18.7714C19.9762 18.6405 20.0126 18.4746 19.9961 18.3101C19.9796 18.1457 19.9115 17.9961 19.8067 17.8945ZM14.0655 12.3476L12.8374 11.1609C12.9408 10.7873 12.9957 10.3953 12.9999 10C13.006 9.4212 12.9034 8.84868 12.7004 8.32843C12.4974 7.80818 12.1996 7.3547 11.8309 7.00441C11.4622 6.65413 11.033 6.4168 10.5776 6.3115C10.1223 6.20619 9.65349 6.23585 9.20897 6.39808C9.39741 6.71726 9.49934 7.10334 9.4999 7.50003C9.49524 7.63203 9.4791 7.76301 9.45178 7.89065L7.15147 5.6684C7.95053 4.83373 8.95857 4.37602 9.9999 4.37506C10.5909 4.37465 11.1762 4.51986 11.7224 4.80239C12.2685 5.08493 12.7647 5.49924 13.1826 6.02165C13.6005 6.54405 13.932 7.16431 14.158 7.84694C14.384 8.52958 14.5002 9.26121 14.4999 10C14.4999 10.8449 14.3346 11.6324 14.0655 12.348V12.3476Z" fill="#5C5C5C"/>
</svg>
